HIERARCHY
ROOT hip
{
  OFFSET 5.70873 43.8894 -1.52928
  CHANNELS 6 Xposition Yposition Zposition Zrotation Xrotation Yrotation
  JOINT abdomen
  {
    OFFSET 0 5.99393 0.287273
    CHANNELS 6 Xposition Yposition Zposition Zrotation Xrotation Yrotation
    JOINT chest
    {
      OFFSET 0 6.65865 -0.856112
      CHANNELS 6 Xposition Yposition Zposition Zrotation Xrotation Yrotation
      JOINT neck
      {
        OFFSET 0 8.65624 -1.42685
        CHANNELS 6 Xposition Yposition Zposition Zrotation Xrotation Yrotation
        JOINT head
        {
          OFFSET 0 3.80999 -0.190247
          CHANNELS 6 Xposition Yposition Zposition Zrotation Xrotation Yrotation
          End Site
          {
            OFFSET 0 0 0
          }
        }
      }
      JOINT rCollar
      {
        OFFSET -1.4963 7.5744 -1.52136
        CHANNELS 6 Xposition Yposition Zposition Zrotation Xrotation Yrotation
        JOINT rShldr
        {
          OFFSET -5.47506 -0.905672 0.485692
          CHANNELS 6 Xposition Yposition Zposition Zrotation Xrotation Yrotation
          JOINT rForeArm
          {
            OFFSET -11.3069 -0.201091 0.618544
            CHANNELS 6 Xposition Yposition Zposition Zrotation Xrotation Yrotation
            JOINT rHand
            {
              OFFSET -9.61414 -0.254739 3.48553
              CHANNELS 6 Xposition Yposition Zposition Zrotation Xrotation Yrotation
              JOINT rThumb1
              {
                OFFSET 0.176263 -0.07068 1.26622
                CHANNELS 6 Xposition Yposition Zposition Zrotation Xrotation Yrotation
                JOINT rThumb2
                {
                  OFFSET -1.04683 -0.546484 1.82182
                  CHANNELS 6 Xposition Yposition Zposition Zrotation Xrotation Yrotation
                  JOINT rThumb3
                  {
                    OFFSET -0.993472 -0.621916 0.655506
                    CHANNELS 6 Xposition Yposition Zposition Zrotation Xrotation Yrotation
                    End Site
                    {
                      OFFSET -0.996134 -0.66263 0.644615
                    }
                  }
                }
              }
              JOINT rIndex1
              {
                OFFSET -2.64253 0.566363 2.4162
                CHANNELS 6 Xposition Yposition Zposition Zrotation Xrotation Yrotation
                JOINT rIndex2
                {
                  OFFSET -1.39394 -0.635138 0.899356
                  CHANNELS 6 Xposition Yposition Zposition Zrotation Xrotation Yrotation
                  JOINT rIndex3
                  {
                    OFFSET -0.622395 -0.856016 0.402182
                    CHANNELS 6 Xposition Yposition Zposition Zrotation Xrotation Yrotation
                    End Site
                    {
                      OFFSET -0.472476 -0.801802 0.34216
                    }
                  }
                }
              }
              JOINT rMid1
              {
                OFFSET -3.20814 0.514427 1.52547
                CHANNELS 6 Xposition Yposition Zposition Zrotation Xrotation Yrotation
                JOINT rMid2
                {
                  OFFSET -1.56545 -0.497974 0.68919
                  CHANNELS 6 Xposition Yposition Zposition Zrotation Xrotation Yrotation
                  JOINT rMid3
                  {
                    OFFSET -0.679943 -1.17582 0.444246
                    CHANNELS 6 Xposition Yposition Zposition Zrotation Xrotation Yrotation
                    End Site
                    {
                      OFFSET -0.343874 -0.941341 0.267611
                    }
                  }
                }
              }
              JOINT rRing1
              {
                OFFSET -3.47877 0.200518 0.597719
                CHANNELS 6 Xposition Yposition Zposition Zrotation Xrotation Yrotation
                JOINT rRing2
                {
                  OFFSET -1.28208 -0.53155 0.44672
                  CHANNELS 6 Xposition Yposition Zposition Zrotation Xrotation Yrotation
                  JOINT rRing3
                  {
                    OFFSET -0.710288 -0.970167 0.4032
                    CHANNELS 6 Xposition Yposition Zposition Zrotation Xrotation Yrotation
                    End Site
                    {
                      OFFSET -0.403228 -0.950952 0.378354
                    }
                  }
                }
              }
              JOINT rPinky1
              {
                OFFSET -3.42483 -0.278904 -0.240415
                CHANNELS 6 Xposition Yposition Zposition Zrotation Xrotation Yrotation
                JOINT rPinky2
                {
                  OFFSET -1.05787 -0.635999 0.156459
                  CHANNELS 6 Xposition Yposition Zposition Zrotation Xrotation Yrotation
                  JOINT rPinky3
                  {
                    OFFSET -0.42815 -0.754232 0.287187
                    CHANNELS 6 Xposition Yposition Zposition Zrotation Xrotation Yrotation
                    End Site
                    {
                      OFFSET -0.235717 -0.725605 0.279416
                    }
                  }
                }
              }
            }
          }
        }
      }
      JOINT lCollar
      {
        OFFSET 1.4963 7.5744 -1.52136
        CHANNELS 6 Xposition Yposition Zposition Zrotation Xrotation Yrotation
        JOINT lShldr
        {
          OFFSET 5.47506 -0.905672 0.485692
          CHANNELS 6 Xposition Yposition Zposition Zrotation Xrotation Yrotation
          JOINT lForeArm
          {
            OFFSET 11.3069 -0.201091 0.618544
            CHANNELS 6 Xposition Yposition Zposition Zrotation Xrotation Yrotation
            JOINT lHand
            {
              OFFSET 9.61414 -0.254739 3.48553
              CHANNELS 6 Xposition Yposition Zposition Zrotation Xrotation Yrotation
              JOINT lThumb1
              {
                OFFSET -0.176263 -0.07068 1.26622
                CHANNELS 6 Xposition Yposition Zposition Zrotation Xrotation Yrotation
                JOINT lThumb2
                {
                  OFFSET 1.04683 -0.546484 1.82182
                  CHANNELS 6 Xposition Yposition Zposition Zrotation Xrotation Yrotation
                  JOINT lThumb3
                  {
                    OFFSET 0.993472 -0.621916 0.655506
                    CHANNELS 6 Xposition Yposition Zposition Zrotation Xrotation Yrotation
                    End Site
                    {
                      OFFSET 0.996134 -0.66263 0.644615
                    }
                  }
                }
              }
              JOINT lIndex1
              {
                OFFSET 2.64253 0.566363 2.4162
                CHANNELS 6 Xposition Yposition Zposition Zrotation Xrotation Yrotation
                JOINT lIndex2
                {
                  OFFSET 1.39394 -0.635138 0.899356
                  CHANNELS 6 Xposition Yposition Zposition Zrotation Xrotation Yrotation
                  JOINT lIndex3
                  {
                    OFFSET 0.622395 -0.856016 0.402182
                    CHANNELS 6 Xposition Yposition Zposition Zrotation Xrotation Yrotation
                    End Site
                    {
                      OFFSET 0.472476 -0.801802 0.34216
                    }
                  }
                }
              }
              JOINT lMid1
              {
                OFFSET 3.20814 0.514427 1.52547
                CHANNELS 6 Xposition Yposition Zposition Zrotation Xrotation Yrotation
                JOINT lMid2
                {
                  OFFSET 1.56545 -0.497974 0.68919
                  CHANNELS 6 Xposition Yposition Zposition Zrotation Xrotation Yrotation
                  JOINT lMid3
                  {
                    OFFSET 0.679943 -1.17582 0.444246
                    CHANNELS 6 Xposition Yposition Zposition Zrotation Xrotation Yrotation
                    End Site
                    {
                      OFFSET 0.343874 -0.941341 0.267611
                    }
                  }
                }
              }
              JOINT lRing1
              {
                OFFSET 3.47877 0.200518 0.597719
                CHANNELS 6 Xposition Yposition Zposition Zrotation Xrotation Yrotation
                JOINT lRing2
                {
                  OFFSET 1.28208 -0.53155 0.44672
                  CHANNELS 6 Xposition Yposition Zposition Zrotation Xrotation Yrotation
                  JOINT lRing3
                  {
                    OFFSET 0.710288 -0.970167 0.4032
                    CHANNELS 6 Xposition Yposition Zposition Zrotation Xrotation Yrotation
                    End Site
                    {
                      OFFSET 0.403228 -0.950952 0.378354
                    }
                  }
                }
              }
              JOINT lPinky1
              {
                OFFSET 3.42483 -0.278904 -0.240415
                CHANNELS 6 Xposition Yposition Zposition Zrotation Xrotation Yrotation
                JOINT lPinky2
                {
                  OFFSET 1.05787 -0.635999 0.156459
                  CHANNELS 6 Xposition Yposition Zposition Zrotation Xrotation Yrotation
                  JOINT lPinky3
                  {
                    OFFSET 0.42815 -0.754232 0.287187
                    CHANNELS 6 Xposition Yposition Zposition Zrotation Xrotation Yrotation
                    End Site
                    {
                      OFFSET 0.235717 -0.725605 0.279416
                    }
                  }
                }
              }
            }
          }
        }
      }
    }
  }
  JOINT rThigh
  {
    OFFSET -4.17848 -1.02486 0.046356
    CHANNELS 6 Xposition Yposition Zposition Zrotation Xrotation Yrotation
    JOINT rShin
    {
      OFFSET 1.27155 -17.465 -0.237699
      CHANNELS 6 Xposition Yposition Zposition Zrotation Xrotation Yrotation
      JOINT rFoot
      {
        OFFSET 0.529163 -17.3815 -1.19582
        CHANNELS 6 Xposition Yposition Zposition Zrotation Xrotation Yrotation
        JOINT rToe
        {
          OFFSET -0.711591 -4.4863 4.0596
          CHANNELS 6 Xposition Yposition Zposition Zrotation Xrotation Yrotation
          End Site
          {
            OFFSET -0.869915 -1.10655 1.99006
          }
        }
      }
    }
  }
  JOINT lThigh
  {
    OFFSET 4.17848 -1.02486 0.046356
    CHANNELS 6 Xposition Yposition Zposition Zrotation Xrotation Yrotation
    JOINT lShin
    {
      OFFSET -1.27155 -17.465 -0.237699
      CHANNELS 6 Xposition Yposition Zposition Zrotation Xrotation Yrotation
      JOINT lFoot
      {
        OFFSET -0.529163 -17.3815 -1.19582
        CHANNELS 6 Xposition Yposition Zposition Zrotation Xrotation Yrotation
        JOINT lToe
        {
          OFFSET 0.711591 -4.4863 4.0596
          CHANNELS 6 Xposition Yposition Zposition Zrotation Xrotation Yrotation
          End Site
          {
            OFFSET 0.869915 -1.10655 1.99006
          }
        }
      }
    }
  }
}
MOTION
Frames:	4
Frame Time:	0.0333333
3.26323 44.7975 -1.22882 -5.63662 -6.13389 -15.4159 4.996e-016 5.99393 0.287273 -0.204109 7.6111 3.31898 2.22045e-016 6.65865 -0.856112 -0.868682 15.1971 6.75606 -4.44089e-016 8.65624 -1.42685 -3.77671 0.287051 -1.00329 -4.44089e-016 3.80999 -0.190247 3.10319 6.15285 4.28518 -1.4963 7.5744 -1.52136 -4.21664 1.89527 -0.994625 -5.47506 -0.905672 0.485692 79.4701 9.92279 28.1703 -11.3069 -0.201091 0.618544 27.3192 10.2534 76.3124 -9.61414 -0.254739 3.48553 43.2722 -34.5671 7.5304 0.176263 -0.07068 1.26622 -24.8976 33.9145 40.8878 -1.04683 -0.546484 1.82182 4.30615 -3.68458 11.8238 -0.993472 -0.621916 0.655506 -3.71498 4.87569 -12.4844 -2.64253 0.566363 2.4162 13.4016 5.92007 -12.0724 -1.39394 -0.635138 0.899356 44.7396 8.1594 -10.1718 -0.622395 -0.856016 0.402182 45.8579 8.24859 -10.4898 -3.20814 0.514427 1.52547 8.71329 1.31471 -2.54082 -1.56545 -0.497974 0.68919 54.6711 10.6552 -13.7026 -0.679943 -1.17582 0.444246 17.1701 4.79319 -3.16533 -3.47877 0.200518 0.597719 16.0007 -0.777436 -5.8071 -1.28208 -0.53155 0.44672 23.0151 6.81341 -5.58379 -0.710288 -0.970167 0.4032 24.7496 7.21961 -6.10006 -3.42483 -0.278904 -0.240415 -5.89212 -7.81249 -6.29521 -1.05787 -0.635999 0.156459 27.525 8.65647 -6.76567 -0.42815 -0.754232 0.287187 16.9676 5.77996 -3.71411 1.4963 7.5744 -1.52136 7.46037 3.57787 1.92313 5.47506 -0.905672 0.485692 -65.9675 14.2967 -48.6906 11.3069 -0.201091 0.618544 -30.6395 11.5602 -74.3215 9.61414 -0.254739 3.48553 -68.2159 -39.0955 -62.7969 -0.176263 -0.07068 1.26622 -0.24453 5.09735 10.9547 1.04683 -0.546484 1.82182 -0.735795 -0.209427 -1.30797 0.993472 -0.621916 0.655506 5.94881 2.40623 10.8794 2.64253 0.566363 2.4162 -21.219 7.57137 19.046 1.39394 -0.635138 0.899356 -14.9779 4.11535 6.46468 0.622395 -0.856016 0.402182 -16.8226 4.49355 7.31516 3.20814 0.514427 1.52547 -14.7411 5.83239 8.95374 1.56545 -0.497974 0.68919 -21.7827 6.52748 11.8827 0.679943 -1.17582 0.444246 -18.9914 5.70416 8.48448 3.47877 0.200518 0.597719 -14.2232 2.87719 7.74225 1.28208 -0.53155 0.44672 -20.6521 6.59789 10.4314 0.710288 -0.970167 0.4032 -18.0401 5.99626 9.02312 3.42483 -0.278904 -0.240415 -15.321 2.03462 7.51824 1.05787 -0.635999 0.156459 -18.6691 6.76159 9.26133 0.42815 -0.754232 0.287187 -18.8002 6.82861 9.33885 -4.17848 -1.02486 0.046356 0.72439 14.2224 35.7143 1.27155 -17.465 -0.237699 -5.79468 -1.42746 -20.5688 0.529163 -17.3815 -1.19582 -5.91825 6.27607 -13.1338 -0.711591 -4.4863 4.0596 7.54144 -15.5266 3.08724 4.17848 -1.02486 0.046356 3.32107 6.93902 -14.9051 -1.27155 -17.465 -0.237699 0.461098 0.434176 1.91528 -0.529163 -17.3815 -1.19582 2.84555 -0.0901408 0.880015 0.711591 -4.4863 4.0596 1.23843e-005 -3.41958e-005 3.07353e-005 
3.20211 44.7958 -1.14303 -5.64489 -6.16148 -15.5014 -3.33067e-016 5.99393 0.287273 -0.199155 7.55083 3.58061 5.55112e-017 6.65865 -0.856112 -0.890193 15.0739 7.28399 4.44089e-016 8.65624 -1.42685 -3.61663 -1.14488 -0.684097 -4.44089e-016 3.80999 -0.190247 3.30774 4.87984 4.6688 -1.4963 7.5744 -1.52136 -4.21663 1.8953 -0.994635 -5.47506 -0.905672 0.485692 79.3753 9.52719 26.8541 -11.3069 -0.201091 0.618544 27.5282 10.8114 77.3847 -9.61414 -0.254739 3.48553 42.6263 -35.1615 6.66363 0.176263 -0.07068 1.26622 -24.6753 33.8951 41.1829 -1.04683 -0.546484 1.82182 3.88992 -3.39182 10.7525 -0.993472 -0.621916 0.655506 -3.98586 5.32019 -13.523 -2.64253 0.566363 2.4162 13.4016 5.92009 -12.0724 -1.39394 -0.635138 0.899356 44.7396 8.15938 -10.1718 -0.622395 -0.856016 0.402182 45.8556 8.2484 -10.4892 -3.20814 0.514427 1.52547 9.72751 1.57741 -2.70632 -1.56545 -0.497974 0.68919 55.722 10.713 -14.0381 -0.679943 -1.17582 0.444246 18.1874 5.04209 -3.39444 -3.47877 0.200518 0.597719 17.0115 -0.543598 -5.9794 -1.28208 -0.53155 0.44672 24.0343 7.05364 -5.88627 -0.710288 -0.970167 0.4032 25.7656 7.44924 -6.40806 -3.42483 -0.278904 -0.240415 -4.90283 -7.57792 -6.32702 -1.05787 -0.635999 0.156459 28.5436 8.90059 -7.08481 -0.42815 -0.754232 0.287187 17.9675 6.07849 -3.98149 1.4963 7.5744 -1.52136 7.46039 3.57788 1.92306 5.47506 -0.905672 0.485692 -65.318 15.366 -48.6508 11.3069 -0.201091 0.618544 -30.6395 11.5601 -74.3215 9.61414 -0.254739 3.48553 -68.216 -39.0956 -62.797 -0.176263 -0.07068 1.26622 0.32026 4.67006 10.7476 1.04683 -0.546484 1.82182 -1.31395 -0.361292 -2.33217 0.993472 -0.621916 0.655506 5.30743 2.07797 9.65953 2.64253 0.566363 2.4162 -19.5882 7.45758 17.9166 1.39394 -0.635138 0.899356 -13.5901 3.81165 5.83132 0.622395 -0.856016 0.402182 -15.521 4.22943 6.714 3.20814 0.514427 1.52547 -13.4069 5.9403 8.12991 1.56545 -0.497974 0.68919 -20.9035 6.30531 11.0664 0.679943 -1.17582 0.444246 -18.0029 5.48456 8.00892 3.47877 0.200518 0.597719 -12.9957 2.89252 6.93858 1.28208 -0.53155 0.44672 -19.7482 6.39739 9.94172 0.710288 -0.970167 0.4032 -17.0574 5.75231 8.4984 3.42483 -0.278904 -0.240415 -14.1156 2.16114 6.60256 1.05787 -0.635999 0.156459 -17.7882 6.52104 8.79029 0.42815 -0.754232 0.287187 -17.8561 6.57178 8.83383 -4.17848 -1.02486 0.046356 0.304222 14.4769 34.2321 1.27155 -17.465 -0.237699 -5.34741 -1.75545 -18.7228 0.529163 -17.3815 -1.19582 -5.74556 5.64405 -11.9374 -0.711591 -4.4863 4.0596 6.59081 -15.5537 1.49211 4.17848 -1.02486 0.046356 3.38255 7.21283 -14.9267 -1.27155 -17.465 -0.237699 0.471793 0.292582 1.96895 -0.529163 -17.3815 -1.19582 2.8242 -0.194988 0.929743 0.711591 -4.4863 4.0596 -6.96354e-006 -1.16882e-005 4.66887e-005 
3.13798 44.792 -1.04177 -5.65662 -6.19027 -15.6204 -1.11022e-016 5.99393 0.287273 -0.195796 7.48343 3.86108 -3.88578e-016 6.65865 -0.856112 -0.916334 14.936 7.84978 -8.88178e-016 8.65624 -1.42685 -3.41625 -2.73226 -0.305565 -4.44089e-016 3.80999 -0.190247 3.57092 3.44753 5.1173 -1.4963 7.5744 -1.52136 -4.21662 1.89534 -0.994641 -5.47506 -0.905672 0.485692 79.2502 9.13266 25.4295 -11.3069 -0.201091 0.618544 27.7537 11.4556 78.6144 -9.61414 -0.254739 3.48553 41.8566 -35.8434 5.6503 0.176263 -0.07068 1.26622 -24.3995 33.8655 41.3679 -1.04683 -0.546484 1.82182 3.41976 -3.04676 9.52745 -0.993472 -0.621916 0.655506 -4.2678 5.82423 -14.6856 -2.64253 0.566363 2.4162 13.4015 5.92014 -12.0724 -1.39394 -0.635138 0.899356 44.7396 8.1594 -10.1718 -0.622395 -0.856016 0.402182 45.8533 8.24821 -10.4885 -3.20814 0.514427 1.52547 10.7426 1.83714 -2.87649 -1.56545 -0.497974 0.68919 56.7734 10.7648 -14.3746 -0.679943 -1.17582 0.444246 19.2025 5.28607 -3.62726 -3.47877 0.200518 0.597719 18.023 -0.312846 -6.15581 -1.28208 -0.53155 0.44672 25.0553 7.28846 -6.19317 -0.710288 -0.970167 0.4032 26.7833 7.67338 -6.72032 -3.42483 -0.278904 -0.240415 -3.78263 -7.29215 -6.3932 -1.05787 -0.635999 0.156459 29.5643 9.13902 -7.40849 -0.42815 -0.754232 0.287187 18.9695 6.37233 -4.25421 1.4963 7.5744 -1.52136 7.46034 3.57796 1.92325 5.47506 -0.905672 0.485692 -64.6309 16.4808 -48.5977 11.3069 -0.201091 0.618544 -30.6396 11.5603 -74.3214 9.61414 -0.254739 3.48553 -68.2158 -39.0955 -62.7968 -0.176263 -0.07068 1.26622 0.968151 4.17792 10.5148 1.04683 -0.546484 1.82182 -1.97995 -0.522631 -3.50812 0.993472 -0.621916 0.655506 4.55522 1.71935 8.26134 2.64253 0.566363 2.4162 -17.7063 7.29965 16.6263 1.39394 -0.635138 0.899356 -12.0029 3.44329 5.11243 0.622395 -0.856016 0.402182 -14.0269 3.90866 6.02993 3.20814 0.514427 1.52547 -11.8641 6.04289 7.19348 1.56545 -0.497974 0.68919 -19.8916 6.04225 10.1306 0.679943 -1.17582 0.444246 -16.8641 5.22084 7.46471 3.47877 0.200518 0.597719 -11.5745 2.88048 6.01565 1.28208 -0.53155 0.44672 -18.7047 6.15582 9.37931 0.710288 -0.970167 0.4032 -15.9262 5.45961 7.89827 3.42483 -0.278904 -0.240415 -12.7177 2.2897 5.55997 1.05787 -0.635999 0.156459 -16.7727 6.23397 8.25062 0.42815 -0.754232 0.287187 -16.7912 6.2393 8.26073 -4.17848 -1.02486 0.046356 -0.209261 14.7537 32.4472 1.27155 -17.465 -0.237699 -4.80838 -2.0811 -16.5268 0.529163 -17.3815 -1.19582 -5.47816 4.86389 -10.5114 -0.711591 -4.4863 4.0596 5.50499 -15.4826 -0.344393 4.17848 -1.02486 0.046356 3.42375 7.47096 -14.943 -1.27155 -17.465 -0.237699 0.487481 0.253661 2.03587 -0.529163 -17.3815 -1.19582 2.8081 -0.377655 0.999882 0.711591 -4.4863 4.0596 -1.37719e-005 -1.67879e-005 7.99866e-005 
3.07205 44.7856 -0.927283 -5.66915 -6.22041 -15.7517 4.44089e-016 5.99393 0.287273 -0.192685 7.40963 4.15355 3.88578e-016 6.65865 -0.856112 -0.943327 14.7851 8.43935 2.22045e-016 8.65624 -1.42685 -3.19755 -4.33205 0.0946905 0 3.80999 -0.190247 3.86227 1.95797 5.58605 -1.4963 7.5744 -1.52136 -4.2166 1.8953 -0.994733 -5.47506 -0.905672 0.485692 79.1113 8.78197 24.0187 -11.3069 -0.201091 0.618544 27.9656 12.1043 79.8444 -9.61414 -0.254739 3.48553 41.0489 -36.5297 4.61534 0.176263 -0.07068 1.26622 -24.1119 33.8322 41.4678 -1.04683 -0.546484 1.82182 2.95725 -2.69176 8.30567 -0.993472 -0.621916 0.655506 -4.53963 6.3338 -15.8469 -2.64253 0.566363 2.4162 13.4015 5.92024 -12.0725 -1.39394 -0.635138 0.899356 44.7396 8.15944 -10.1718 -0.622395 -0.856016 0.402182 45.8509 8.24802 -10.4878 -3.20814 0.514427 1.52547 11.6935 2.07521 -3.03102 -1.56545 -0.497974 0.68919 57.7067 10.8057 -14.6741 -0.679943 -1.17582 0.444246 20.1345 5.5061 -3.84455 -3.47877 0.200518 0.597719 18.9561 -0.0936517 -6.31676 -1.28208 -0.53155 0.44672 26.0057 7.5018 -6.48223 -0.710288 -0.970167 0.4032 27.7063 7.87159 -7.00659 -3.42483 -0.278904 -0.240415 -2.66282 -7.00773 -6.46496 -1.05787 -0.635999 0.156459 30.4901 9.34995 -7.70538 -0.42815 -0.754232 0.287187 19.8879 6.63701 -4.5084 1.4963 7.5744 -1.52136 7.46035 3.57791 1.92321 5.47506 -0.905672 0.485692 -63.9798 17.5419 -48.5152 11.3069 -0.201091 0.618544 -30.6396 11.5603 -74.3214 9.61414 -0.254739 3.48553 -68.2158 -39.0955 -62.7968 -0.176263 -0.07068 1.26622 1.61366 3.68321 10.2876 1.04683 -0.546484 1.82182 -2.64913 -0.670256 -4.68587 0.993472 -0.621916 0.655506 3.79458 1.37922 6.8588 2.64253 0.566363 2.4162 -15.8292 7.09984 15.3424 1.39394 -0.635138 0.899356 -10.4211 3.05519 4.40434 0.622395 -0.856016 0.402182 -12.5373 3.57026 5.35472 3.20814 0.514427 1.52547 -10.3197 6.12033 6.25445 1.56545 -0.497974 0.68919 -18.8724 5.76949 9.19366 0.679943 -1.17582 0.444246 -15.7283 4.94645 6.92603 3.47877 0.200518 0.597719 -10.1537 2.84562 5.0933 1.28208 -0.53155 0.44672 -17.6641 5.9041 8.82166 0.710288 -0.970167 0.4032 -14.7987 5.15519 7.30431 3.42483 -0.278904 -0.240415 -11.3176 2.39276 4.51447 1.05787 -0.635999 0.156459 -15.7605 5.93744 7.71647 0.42815 -0.754232 0.287187 -15.6934 5.9504 7.68909 -4.17848 -1.02486 0.046356 -0.776163 15.0528 30.5097 1.27155 -17.465 -0.237699 -4.23461 -2.40071 -14.2145 0.529163 -17.3815 -1.19582 -5.12817 4.01494 -8.9977 -0.711591 -4.4863 4.0596 4.4297 -15.2797 -2.18672 4.17848 -1.02486 0.046356 3.45508 7.74163 -14.9574 -1.27155 -17.465 -0.237699 0.504985 0.242264 2.10952 -0.529163 -17.3815 -1.19582 2.79948 -0.595493 1.07654 0.711591 -4.4863 4.0596 -5.60434e-005 -2.96711e-005 0.000126853 
